<?xml version="1.0" encoding="utf-8"?>
<!-- Generator: Adobe Illustrator 24.2.3, SVG Export Plug-In . SVG Version: 6.00 Build 0)  -->
<svg version="1.1" id="레이어_1" xmlns="http://www.w3.org/2000/svg" xmlns:xlink="http://www.w3.org/1999/xlink" x="0px"
	 y="0px" viewBox="0 0 389.72 30.61" style="enable-background:new 0 0 389.72 30.61;" xml:space="preserve">
<style type="text/css">
	.st0{clip-path:url(#SVGID_2_);}
</style>
<g>
	<defs>
		<rect id="SVGID_1_" x="-55.81" y="-64.68" width="595.75" height="143.03"/>
	</defs>
	<clipPath id="SVGID_2_">
		<use xlink:href="#SVGID_1_"  style="overflow:visible;"/>
	</clipPath>
	<path class="st0" d="M472.61,15.08h3.01c1.8,0,3.41,0.4,3.41,2.64s-1.61,2.64-3.41,2.64h-3.01V15.08z M468.74,29.7h3.87v-6.32h4.08
		c4.39,0,6.1-2.79,6.1-5.65c0-2.87-1.7-5.65-6.1-5.65h-7.95V29.7z M451.18,20.96c0-3.09,1.31-6.05,4.79-6.05
		c3.48,0,4.79,2.96,4.79,6.05c0,2.94-1.31,5.9-4.79,5.9C452.49,26.86,451.18,23.9,451.18,20.96 M447.31,20.96
		c0,5.09,3.21,9.16,8.66,9.16c5.46,0,8.66-4.07,8.66-9.16c0-5.24-3.21-9.31-8.66-9.31C450.52,11.65,447.31,15.72,447.31,20.96
		 M428.34,29.7h3.87v-7.6h7.14v7.6h3.87V12.07h-3.87v6.76h-7.14v-6.76h-3.87V29.7z M409.6,23.85c-0.05,4.35,3.6,6.27,7.5,6.27
		c4.79,0,7.33-2.42,7.33-5.65c0-4-3.95-4.82-5.23-5.14c-4.42-1.14-5.26-1.31-5.26-2.67c0-1.48,1.43-2,2.67-2
		c1.85,0,3.36,0.54,3.48,2.67h3.75c0-4.07-3.38-5.68-7.06-5.68c-3.19,0-6.59,1.73-6.59,5.33c0,3.31,2.64,4.32,5.26,5.01
		c2.59,0.69,5.24,1.01,5.24,2.91c0,1.8-2.08,2.2-3.43,2.2c-2.07,0-3.9-0.91-3.9-3.26H409.6z M371.79,29.7h6.28V18.75l10.59-17.59h-7
		l-6.64,11.27l-6.68-11.27h-7.08l10.51,17.43V29.7z M338.02,6.03h6.88c2.8,0,4.32,1.2,4.32,3.96c0,2.88-1.52,4.08-4.32,4.08h-6.88
		V6.03z M331.74,29.7h6.28V18.55h6.28c3.16,0,4.32,1.32,4.76,4.32c0.32,2.28,0.24,5.04,1,6.84h6.28c-1.12-1.6-1.08-4.96-1.2-6.76
		c-0.2-2.88-1.08-5.88-4.16-6.68v-0.08c3.16-1.28,4.52-3.8,4.52-7.15c0-4.32-3.24-7.87-8.36-7.87h-15.39V29.7z M300.71,29.7h21.67
		v-5.28h-15.39v-7h13.83v-4.88h-13.83V6.43h15.07V1.16h-21.35V29.7z M272.53,29.7h20.19v-5.28h-13.91V1.16h-6.28V29.7z M244.36,29.7
		h20.19v-5.28h-13.91V1.16h-6.28V29.7z M222.89,8.19h0.08l3.6,10.47h-7.39L222.89,8.19z M208.94,29.7h6.36l2.24-6.36h10.67
		l2.16,6.36h6.52L226.21,1.16h-6.44L208.94,29.7z M197.66,29.7h4V14.27h-11.99v4.68h6.32c-0.36,3.96-2.72,6.16-6.8,6.16
		c-5.64,0-7.76-4.8-7.76-9.55c0-5,2.12-9.79,7.76-9.79c2.96,0,5.32,1.64,6.04,4.8h6c-0.68-6.48-6.2-10.07-12.03-10.07
		c-8.83,0-14.03,6.6-14.03,15.07c0,8.24,5.2,14.83,14.03,14.83c2.76,0,5.64-1.08,7.83-3.92L197.66,29.7z M129.78,29.7h21.67v-5.28
		h-15.39v-7h13.83v-4.88h-13.83V6.43h15.07V1.16h-21.35V29.7z M119.39,1.16h-6.28v19.27c0,2,0,4.68-3.32,4.68
		c-2.96,0-3.64-2-3.64-4.76v-1.28h-5.68v2.48c0,6.24,4.64,8.83,9.39,8.83c8.51,0,9.51-6,9.51-9.67V1.16z M69.24,29.7h6.28v-9.19
		l3.6-3.64l8.59,12.83h7.88L83.35,12.43L94.51,1.16h-7.84L75.52,12.99V1.16h-6.28V29.7z M58.93,1.16h-6.28v17.75
		c0,4.24-1.44,6.2-5.92,6.2c-5.08,0-5.88-3.08-5.88-6.2V1.16h-6.28v17.75c0,7.75,4.48,11.47,12.15,11.47
		c7.64,0,12.19-3.76,12.19-11.47V1.16z M1.35,29.7h6.28v-9.19l3.6-3.64l8.59,12.83h7.88L15.46,12.43L26.61,1.16h-7.83L7.62,12.99
		V1.16H1.35V29.7z"/>
</g>
</svg>
